# xmcd
# Track frame offsets:
# 150
# 12106
# 22379
# 35846
# 50527
# 61793
# 74464
# 86932
# 100109
# 112632
# 129214
# 143021
# 155308
# 167087
# 183815
# 197779
# 209081
# 221497
#
# Disc length: 3183 seconds
# Revision: 0
# Processed by: cddbd v1.5.1PL0 Copyright (c) Steve Scherf et al.
# Submitted via: VisiTrax 2.9.10.228 - For more info visit www.synapsa.com
#
DISCID=fc0c6d12
DTITLE=Chester, Johnny - Best of Johnny Chester Disc 2
DYEAR=1900
DGENRE=
TTITLE0=You're Always Welcome At Our House
TTITLE1=I Couldn't Spell
TTITLE2=Let Me Bring You Up
TTITLE3=Three Jobs Down
TTITLE4=Anytime At All
TTITLE5=Take To The Mountains
TTITLE6=(Baby Won't You) Send Your Sweet Lovin' To Me
TTITLE7=If Only I Could Leave You
TTITLE8=Linda Lou
TTITLE9=Only When Your Lonely
TTITLE10=Christmas At Home
TTITLE11=That Simple Song
TTITLE12=My Heart Tells You
TTITLE13=Living With A Love That's Dying
TTITLE14=Hold Me Honey
TTITLE15=All I Want For Christmas
TTITLE16=How Come I Have You
TTITLE17=I Loved You Then, I Love You Know
EXTD=
EXTT0=
EXTT1=
EXTT2=
EXTT3=
EXTT4=
EXTT5=
EXTT6=
EXTT7=
EXTT8=
EXTT9=
EXTT10=
EXTT11=
EXTT12=
EXTT13=
EXTT14=
EXTT15=
EXTT16=
EXTT17=
PLAYORDER=
